<svg width="153" height="141" viewBox="0 0 153 141" fill="none" xmlns="http://www.w3.org/2000/svg">
<path d="M50.7506 38.7595C36.5257 20.7899 62.9999 9.73166 70.7051 20.1975C68.3342 7.75698 92.4376 -1.52404 100.143 15.4582C98.1671 -3.10378 133.729 -7.05314 128.988 20.9874C144.991 8.15192 166.328 35.6 141.632 46.8557C128.988 52.7798 64.1853 55.5443 50.7506 38.7595Z" fill="url(#paint0_linear_12_3260)"/>
<path d="M131.359 25.9241C126.815 35.7975 141.435 40.1418 142.62 32.4406C143.41 28.0963 137.286 25.5292 136.495 30.6634C139.261 27.7013 141.237 34.8102 136.298 32.8355C133.334 31.6507 134.125 27.5039 136.693 26.1216C142.818 22.7646 148.152 31.6507 141.83 37.1798C145.584 36.7849 147.559 33.4279 147.757 30.6634C147.954 26.714 145.781 23.5545 142.818 21.9747C140.249 20.395 134.322 19.6051 131.359 25.9241Z" fill="url(#paint1_linear_12_3260)"/>
<path d="M54.7019 24.7393C50.1579 34.6127 64.7779 38.957 65.9633 31.2557C66.7536 26.9114 60.629 24.3443 59.8387 29.4785C62.6047 26.5165 64.5803 33.6254 59.6411 31.6507C56.48 30.4659 57.4679 26.319 60.0363 24.9367C66.1609 21.5798 71.4952 30.4659 65.173 35.995C68.9268 35.6 70.9025 32.2431 71.1001 29.4785C71.2977 25.5292 69.1244 22.3697 66.1609 20.7899C63.5925 19.4076 57.6654 18.6178 54.7019 24.7393Z" fill="url(#paint2_linear_12_3260)"/>
<path d="M104.884 10.1266C98.9572 23.357 118.121 29.0836 119.899 18.6177C120.887 12.8912 112.787 9.33672 111.799 16.2481C115.553 12.4962 118.121 21.7772 111.602 19.2101C107.453 17.6304 108.638 12.2987 111.997 10.5215C120.097 5.97976 127.21 17.8279 118.912 25.1342C123.851 24.5418 126.617 20 126.814 16.4456C127.21 11.3114 124.048 7.16458 120.295 4.99242C116.541 3.01774 108.638 1.83293 104.884 10.1266Z" fill="url(#paint3_linear_12_3260)"/>
<path d="M74.6563 15.2608C68.7292 28.4911 87.8934 34.2177 89.6715 23.7519C90.6593 18.0253 82.559 14.4709 81.5712 21.3823C85.325 17.6304 87.8933 26.9114 81.3736 24.3443C77.2247 22.7645 78.4101 17.4329 81.7687 15.6557C89.869 11.1139 96.9815 22.962 88.6836 30.2683C93.6228 29.6759 96.3888 25.1342 96.5864 21.5798C96.9815 16.4456 93.8204 12.2987 90.0666 10.1266C86.5104 8.1519 78.6076 6.96708 74.6563 15.2608Z" fill="url(#paint4_linear_12_3260)"/>
<path d="M24.0788 49.6203C9.2612 23.9494 57.2703 9.92918 62.2095 43.8937C67.5439 33.6254 86.1153 35.2051 87.6958 50.8051C83.7445 24.9368 123.653 26.714 119.702 49.0279C126.814 33.033 160.203 49.0279 141.237 67.5899C125.629 82.795 14.9907 88.5216 2.14874 66.0102C-6.54427 50.6077 13.8053 36.7849 24.0788 49.6203Z" fill="url(#paint5_linear_12_3260)"/>
<path d="M3.92668 57.1241C2.74127 68.7748 20.1273 67.59 18.5467 59.0988C17.7565 54.5571 10.2489 54.1621 11.2367 59.6912C13.2124 55.7419 17.954 62.0608 11.8294 61.8634C8.07562 61.8634 7.48292 57.5191 9.65617 55.1495C15.1881 49.4229 24.2762 56.1368 19.337 64.233C23.2884 62.4558 24.2762 58.1115 23.486 55.3469C22.3005 51.3975 19.1395 49.2254 16.3735 49.0279C13.0148 48.8305 4.71696 49.8178 3.92668 57.1241Z" fill="url(#paint6_linear_12_3260)"/>
<path d="M64.3827 50.6077C63.1973 62.2583 80.5834 61.0735 79.0028 52.5824C78.2125 48.0406 70.7049 47.6457 71.6928 53.1748C73.6685 49.2254 78.4101 55.5444 72.2855 55.3469C68.5317 55.3469 67.939 51.0026 70.1122 48.633C75.6441 42.9064 84.7323 49.6204 79.7931 57.7166C83.7444 55.9393 84.7323 51.595 83.942 48.8305C82.7566 44.8811 79.5955 42.7089 76.8296 42.5115C73.4709 42.314 65.173 43.1039 64.3827 50.6077Z" fill="url(#paint7_linear_12_3260)"/>
<path d="M121.875 52.9772C117.529 63.838 134.519 67.3924 135.507 58.9013C136.1 54.162 128.79 51.9899 128.197 57.3215C131.161 53.9646 134.124 61.4684 128.197 59.6912C124.641 58.5064 125.234 54.1621 128 52.5823C134.915 48.4355 141.829 57.519 134.915 63.838C139.261 63.0481 141.237 59.2962 141.237 56.3342C141.237 52.1874 138.273 49.0279 134.915 47.6456C131.753 46.6583 124.641 46.0658 121.875 52.9772Z" fill="url(#paint8_linear_12_3260)"/>
<path d="M92.6352 45.0785C91.2522 58.5064 111.207 57.1241 109.428 47.4481C108.441 42.1165 99.7476 41.919 100.933 48.0406C103.304 43.4988 108.638 50.8051 101.723 50.6076C97.3768 50.6076 96.7841 45.4735 99.3525 42.9064C105.675 36.1925 116.146 44.0912 110.416 53.1747C114.96 51.0026 115.948 46.0659 115.158 42.9064C113.775 38.3646 110.219 35.7975 107.058 35.7975C102.909 35.6001 93.4255 36.5874 92.6352 45.0785Z" fill="url(#paint9_linear_12_3260)"/>
<path d="M26.0547 39.9444C24.2766 57.7166 50.5532 55.7419 48.1823 43.1039C46.9969 36.1925 35.538 35.7976 37.1185 43.8938C40.082 37.7723 47.3921 47.4482 38.1064 47.2507C32.3769 47.2507 31.5866 40.5368 34.9453 36.9824C43.2431 28.2938 57.0729 38.5621 49.5653 50.6077C55.4924 47.8431 56.8754 41.3267 55.6899 37.1798C53.9118 31.2558 49.1702 27.8988 45.0212 27.7014C39.6869 27.5039 27.2401 28.6887 26.0547 39.9444Z" fill="url(#paint10_linear_12_3260)"/>
<path d="M48.5774 110.046C47.5896 113.205 44.2309 114.785 41.2674 113.797C38.1063 112.81 36.5258 109.453 37.5136 106.491C38.5014 103.332 47.9847 88.9165 49.1701 89.3114C50.158 89.7064 49.5653 107.084 48.5774 110.046Z" fill="url(#paint11_linear_12_3260)"/>
<path d="M46.6017 109.651C46.009 111.823 43.6382 113.008 41.4649 112.218C39.2917 111.625 38.1063 109.256 38.8965 107.084C39.4892 104.911 43.0455 100.172 45.2187 100.765C47.1944 101.554 47.392 107.478 46.6017 109.651Z" fill="url(#paint12_linear_12_3260)"/>
<path d="M56.8754 136.309C55.8876 139.073 52.9241 140.653 50.1581 139.863C47.3921 138.876 45.8116 135.914 46.6019 133.149C47.5897 130.385 56.2827 116.957 57.2706 117.352C58.2584 117.549 57.8633 133.347 56.8754 136.309Z" fill="url(#paint13_linear_12_3260)"/>
<path d="M55.0973 135.914C54.5046 137.889 52.3313 139.073 50.3557 138.284C48.38 137.691 47.1946 135.519 47.9848 133.544C48.5775 131.57 51.7386 127.225 53.7143 127.818C55.69 128.41 55.69 133.939 55.0973 135.914Z" fill="url(#paint14_linear_12_3260)"/>
<path d="M87.4985 136.309C86.5106 139.073 83.5471 140.653 80.7812 139.863C78.0152 138.876 76.4346 135.914 77.2249 133.149C78.2128 130.385 86.9058 116.957 87.8936 117.352C88.8815 117.549 88.4863 133.347 87.4985 136.309Z" fill="url(#paint15_linear_12_3260)"/>
<path d="M85.7204 135.914C85.1277 137.889 82.9544 139.073 80.9787 138.284C79.003 137.691 77.8176 135.519 78.6079 133.544C79.2006 131.57 82.3617 127.225 84.3374 127.818C86.3131 128.41 86.5106 133.939 85.7204 135.914Z" fill="url(#paint16_linear_12_3260)"/>
<path d="M77.6201 109.256C76.6322 112.02 73.6687 113.6 70.9027 112.81C68.1368 111.823 66.5562 108.861 67.3465 106.096C68.3343 103.332 77.0274 89.9039 78.0152 90.2988C79.003 90.4963 78.6079 106.294 77.6201 109.256Z" fill="url(#paint17_linear_12_3260)"/>
<path d="M75.8419 108.861C75.2492 110.836 73.076 112.02 71.1003 111.23C69.1246 110.638 67.9392 108.466 68.7295 106.491C69.3222 104.517 72.4833 100.172 74.459 100.765C76.4346 101.554 76.6322 106.886 75.8419 108.861Z" fill="url(#paint18_linear_12_3260)"/>
<path d="M106.268 109.256C105.28 112.02 102.316 113.6 99.5502 112.81C96.7842 111.823 95.2037 108.861 95.994 106.096C96.9818 103.332 105.675 89.9039 106.663 90.2988C107.65 90.4963 107.255 106.294 106.268 109.256Z" fill="url(#paint19_linear_12_3260)"/>
<path d="M104.489 108.861C103.897 110.836 101.723 112.02 99.7478 111.23C97.7721 110.638 96.5867 108.466 97.3769 106.491C97.9696 104.517 101.131 100.172 103.106 100.765C105.082 101.554 105.082 106.886 104.489 108.861Z" fill="url(#paint20_linear_12_3260)"/>
<defs>
<linearGradient id="paint0_linear_12_3260" x1="101.246" y1="10.244" x2="98.7276" y2="45.4473" gradientUnits="userSpaceOnUse">
<stop stop-color="#C7F6FF"/>
<stop offset="0.1871" stop-color="#C3F4FF"/>
<stop offset="0.3738" stop-color="#B7EDFF"/>
<stop offset="0.5603" stop-color="#A3E2FF"/>
<stop offset="0.7469" stop-color="#87D2FF"/>
<stop offset="0.9318" stop-color="#63BEFF"/>
<stop offset="1" stop-color="#54B5FF"/>
</linearGradient>
<linearGradient id="paint1_linear_12_3260" x1="142.107" y1="21.7542" x2="137.39" y2="34.9702" gradientUnits="userSpaceOnUse">
<stop stop-color="white" stop-opacity="0.11"/>
<stop offset="1" stop-color="white"/>
</linearGradient>
<linearGradient id="paint2_linear_12_3260" x1="65.4501" y1="20.7022" x2="60.8052" y2="33.8298" gradientUnits="userSpaceOnUse">
<stop stop-color="white" stop-opacity="0.11"/>
<stop offset="1" stop-color="white"/>
</linearGradient>
<linearGradient id="paint3_linear_12_3260" x1="119.281" y1="4.73775" x2="113.095" y2="22.2541" gradientUnits="userSpaceOnUse">
<stop stop-color="white" stop-opacity="0.11"/>
<stop offset="1" stop-color="white"/>
</linearGradient>
<linearGradient id="paint4_linear_12_3260" x1="89.0528" y1="9.8719" x2="82.8671" y2="27.3883" gradientUnits="userSpaceOnUse">
<stop stop-color="white" stop-opacity="0.11"/>
<stop offset="1" stop-color="white"/>
</linearGradient>
<linearGradient id="paint5_linear_12_3260" x1="73.5958" y1="34.931" x2="73.5958" y2="81.4917" gradientUnits="userSpaceOnUse">
<stop stop-color="#99E8FF"/>
<stop offset="0.2786" stop-color="#96E6FF"/>
<stop offset="0.4778" stop-color="#8DE0FF"/>
<stop offset="0.6522" stop-color="#7DD5FF"/>
<stop offset="0.8123" stop-color="#67C6FF"/>
<stop offset="0.9614" stop-color="#4BB3FF"/>
<stop offset="1" stop-color="#42ADFF"/>
</linearGradient>
<linearGradient id="paint6_linear_12_3260" x1="17.2281" y1="49.9169" x2="12.8458" y2="63.7411" gradientUnits="userSpaceOnUse">
<stop stop-color="white" stop-opacity="0.11"/>
<stop offset="1" stop-color="white"/>
</linearGradient>
<linearGradient id="paint7_linear_12_3260" x1="77.6842" y1="43.3975" x2="73.3004" y2="57.2238" gradientUnits="userSpaceOnUse">
<stop stop-color="white" stop-opacity="0.11"/>
<stop offset="1" stop-color="white"/>
</linearGradient>
<linearGradient id="paint8_linear_12_3260" x1="134.661" y1="47.9701" x2="130.256" y2="61.9042" gradientUnits="userSpaceOnUse">
<stop stop-color="white" stop-opacity="0.11"/>
<stop offset="1" stop-color="white"/>
</linearGradient>
<linearGradient id="paint9_linear_12_3260" x1="107.922" y1="36.8233" x2="102.883" y2="52.7159" gradientUnits="userSpaceOnUse">
<stop stop-color="white" stop-opacity="0.11"/>
<stop offset="1" stop-color="white"/>
</linearGradient>
<linearGradient id="paint10_linear_12_3260" x1="46.2139" y1="29.0636" x2="39.5731" y2="50.0131" gradientUnits="userSpaceOnUse">
<stop stop-color="white" stop-opacity="0.11"/>
<stop offset="1" stop-color="white"/>
</linearGradient>
<linearGradient id="paint11_linear_12_3260" x1="48.8697" y1="89.6472" x2="41.5364" y2="112.731" gradientUnits="userSpaceOnUse">
<stop stop-color="#99E8FF"/>
<stop offset="0.2786" stop-color="#96E6FF"/>
<stop offset="0.4778" stop-color="#8DE0FF"/>
<stop offset="0.6522" stop-color="#7DD5FF"/>
<stop offset="0.8123" stop-color="#67C6FF"/>
<stop offset="0.9614" stop-color="#4BB3FF"/>
<stop offset="1" stop-color="#42ADFF"/>
</linearGradient>
<linearGradient id="paint12_linear_12_3260" x1="44.2879" y1="101.356" x2="39.85" y2="109.733" gradientUnits="userSpaceOnUse">
<stop stop-color="white" stop-opacity="0.11"/>
<stop offset="1" stop-color="white"/>
</linearGradient>
<linearGradient id="paint13_linear_12_3260" x1="57.177" y1="117.48" x2="50.4512" y2="138.652" gradientUnits="userSpaceOnUse">
<stop stop-color="#99E8FF"/>
<stop offset="0.2786" stop-color="#96E6FF"/>
<stop offset="0.4778" stop-color="#8DE0FF"/>
<stop offset="0.6522" stop-color="#7DD5FF"/>
<stop offset="0.8123" stop-color="#67C6FF"/>
<stop offset="0.9614" stop-color="#4BB3FF"/>
<stop offset="1" stop-color="#42ADFF"/>
</linearGradient>
<linearGradient id="paint14_linear_12_3260" x1="52.9182" y1="128.352" x2="48.8574" y2="136.038" gradientUnits="userSpaceOnUse">
<stop stop-color="white" stop-opacity="0.11"/>
<stop offset="1" stop-color="white"/>
</linearGradient>
<linearGradient id="paint15_linear_12_3260" x1="87.8432" y1="117.48" x2="81.1173" y2="138.652" gradientUnits="userSpaceOnUse">
<stop stop-color="#99E8FF"/>
<stop offset="0.2786" stop-color="#96E6FF"/>
<stop offset="0.4778" stop-color="#8DE0FF"/>
<stop offset="0.6522" stop-color="#7DD5FF"/>
<stop offset="0.8123" stop-color="#67C6FF"/>
<stop offset="0.9614" stop-color="#4BB3FF"/>
<stop offset="1" stop-color="#42ADFF"/>
</linearGradient>
<linearGradient id="paint16_linear_12_3260" x1="83.6001" y1="128.352" x2="79.5653" y2="136.076" gradientUnits="userSpaceOnUse">
<stop stop-color="white" stop-opacity="0.11"/>
<stop offset="1" stop-color="white"/>
</linearGradient>
<linearGradient id="paint17_linear_12_3260" x1="77.9913" y1="90.4747" x2="71.2654" y2="111.647" gradientUnits="userSpaceOnUse">
<stop stop-color="#99E8FF"/>
<stop offset="0.2786" stop-color="#96E6FF"/>
<stop offset="0.4778" stop-color="#8DE0FF"/>
<stop offset="0.6522" stop-color="#7DD5FF"/>
<stop offset="0.8123" stop-color="#67C6FF"/>
<stop offset="0.9614" stop-color="#4BB3FF"/>
<stop offset="1" stop-color="#42ADFF"/>
</linearGradient>
<linearGradient id="paint18_linear_12_3260" x1="73.7217" y1="101.299" x2="69.6868" y2="109.023" gradientUnits="userSpaceOnUse">
<stop stop-color="white" stop-opacity="0.11"/>
<stop offset="1" stop-color="white"/>
</linearGradient>
<linearGradient id="paint19_linear_12_3260" x1="106.594" y1="90.4745" x2="99.8682" y2="111.647" gradientUnits="userSpaceOnUse">
<stop stop-color="#99E8FF"/>
<stop offset="0.2786" stop-color="#96E6FF"/>
<stop offset="0.4778" stop-color="#8DE0FF"/>
<stop offset="0.6522" stop-color="#7DD5FF"/>
<stop offset="0.8123" stop-color="#67C6FF"/>
<stop offset="0.9614" stop-color="#4BB3FF"/>
<stop offset="1" stop-color="#42ADFF"/>
</linearGradient>
<linearGradient id="paint20_linear_12_3260" x1="102.31" y1="101.299" x2="98.2494" y2="108.985" gradientUnits="userSpaceOnUse">
<stop stop-color="white" stop-opacity="0.11"/>
<stop offset="1" stop-color="white"/>
</linearGradient>
</defs>
</svg>
