<svg width="153" height="137" viewBox="0 0 153 137" fill="none" xmlns="http://www.w3.org/2000/svg">
<path d="M50.7082 38.7595C36.4832 20.7899 62.9574 9.73166 70.6626 20.1975C68.2918 7.75698 92.3951 -1.52404 100.1 15.4582C98.1246 -3.10378 133.687 -7.05314 128.945 20.9874C144.948 8.15192 166.286 35.6 141.59 46.8557C128.945 52.7798 64.1428 55.5443 50.7082 38.7595Z" fill="url(#paint0_linear_12_3291)"/>
<path d="M131.316 25.9241C126.772 35.7975 141.392 40.1418 142.578 32.4406C143.368 28.0963 137.243 25.5292 136.453 30.6634C139.219 27.7013 141.195 34.8102 136.255 32.8355C133.292 31.6507 134.082 27.5039 136.651 26.1216C142.775 22.7646 148.11 31.6507 141.787 37.1798C145.541 36.7849 147.517 33.4279 147.714 30.6634C147.912 26.714 145.739 23.5545 142.775 21.9747C140.207 20.395 134.28 19.6051 131.316 25.9241Z" fill="url(#paint1_linear_12_3291)"/>
<path d="M54.6594 24.7393C50.1154 34.6127 64.7355 38.957 65.9209 31.2557C66.7111 26.9114 60.5865 24.3443 59.7962 29.4785C62.5622 26.5165 64.5379 33.6254 59.5987 31.6507C56.4376 30.4659 57.4254 26.319 59.9938 24.9367C66.1184 21.5798 71.4527 30.4659 65.1305 35.995C68.8843 35.6 70.86 32.2431 71.0576 29.4785C71.2552 25.5292 69.0819 22.3697 66.1184 20.7899C63.55 19.4076 57.623 18.6178 54.6594 24.7393Z" fill="url(#paint2_linear_12_3291)"/>
<path d="M104.842 10.1266C98.9148 23.357 118.079 29.0836 119.857 18.6177C120.845 12.8912 112.745 9.33672 111.757 16.2481C115.511 12.4962 118.079 21.7772 111.559 19.2101C107.41 17.6304 108.596 12.2987 111.954 10.5215C120.055 5.97976 127.167 17.8279 118.869 25.1342C123.808 24.5418 126.574 20 126.772 16.4456C127.167 11.3114 124.006 7.16458 120.252 4.99242C116.498 3.01774 108.596 1.83293 104.842 10.1266Z" fill="url(#paint3_linear_12_3291)"/>
<path d="M74.6138 15.2608C68.6867 28.4911 87.8509 34.2177 89.629 23.7519C90.6168 18.0253 82.5165 14.4709 81.5287 21.3823C85.2825 17.6304 87.8509 26.9114 81.3311 24.3443C77.1822 22.7645 78.3676 17.4329 81.7263 15.6557C89.8266 11.1139 96.939 22.962 88.6411 30.2683C93.5804 29.6759 96.3463 25.1342 96.5439 21.5798C96.939 16.4456 93.7779 12.2987 90.0241 10.1266C86.4679 8.1519 78.5651 6.96708 74.6138 15.2608Z" fill="url(#paint4_linear_12_3291)"/>
<path d="M24.0364 49.6203C9.21873 23.9494 57.2278 9.92918 62.167 43.8937C67.5014 33.6254 86.0729 35.2051 87.6534 50.8051C83.702 24.9368 123.611 26.714 119.659 49.0279C126.772 33.033 160.161 49.0279 141.194 67.5899C125.586 82.795 14.9482 88.5216 2.10626 66.0102C-6.58675 50.6077 13.7628 36.7849 24.0364 49.6203Z" fill="url(#paint5_linear_12_3291)"/>
<path d="M3.8842 57.1241C2.69879 68.7748 20.0849 67.59 18.5043 59.0988C17.714 54.5571 10.2064 54.1621 11.1943 59.6912C13.1699 55.7419 17.9116 62.0608 11.7869 61.8634C8.03314 61.8634 7.44048 57.5191 9.61374 55.1495C15.1456 49.4229 24.2338 56.1368 19.2946 64.233C23.2459 62.4558 24.2338 58.1115 23.4435 55.3469C22.2581 51.3975 19.097 49.2254 16.331 49.0279C12.9724 48.8305 4.67448 49.8178 3.8842 57.1241Z" fill="url(#paint6_linear_12_3291)"/>
<path d="M64.3403 50.6077C63.1548 62.2583 80.5409 61.0735 78.9603 52.5824C78.17 48.0406 70.6625 47.6457 71.6503 53.1748C73.626 49.2254 78.3676 55.5444 72.243 55.3469C68.4892 55.3469 67.8965 51.0026 70.0697 48.633C75.6016 42.9064 84.6898 49.6204 79.7506 57.7166C83.702 55.9393 84.6898 51.595 83.8995 48.8305C82.7141 44.8811 79.5531 42.7089 76.7871 42.5115C73.4284 42.314 65.1305 43.1039 64.3403 50.6077Z" fill="url(#paint7_linear_12_3291)"/>
<path d="M121.833 52.9772C117.486 63.838 134.477 67.3924 135.465 58.9013C136.057 54.162 128.747 51.9899 128.155 57.3215C131.118 53.9646 134.082 61.4684 128.155 59.6912C124.599 58.5064 125.191 54.1621 127.957 52.5823C134.872 48.4355 141.787 57.519 134.872 63.838C139.219 63.0481 141.194 59.2962 141.194 56.3342C141.194 52.1874 138.231 49.0279 134.872 47.6456C131.711 46.6583 124.598 46.0658 121.833 52.9772Z" fill="url(#paint8_linear_12_3291)"/>
<path d="M92.5927 45.0785C91.2097 58.5064 111.164 57.1241 109.386 47.4481C108.398 42.1165 99.7051 41.919 100.891 48.0406C103.261 43.4988 108.596 50.8051 101.681 50.6076C97.3343 50.6076 96.7416 45.4735 99.31 42.9064C105.632 36.1925 116.103 44.0912 110.374 53.1747C114.918 51.0026 115.906 46.0659 115.115 42.9064C113.733 38.3646 110.176 35.7975 107.015 35.7975C102.866 35.6001 93.383 36.5874 92.5927 45.0785Z" fill="url(#paint9_linear_12_3291)"/>
<path d="M26.0122 39.9444C24.2341 57.7166 50.5107 55.7419 48.1399 43.1039C46.9545 36.1925 35.4955 35.7976 37.076 43.8938C40.0396 37.7723 47.3496 47.4482 38.0639 47.2507C32.3344 47.2507 31.5441 40.5368 34.9028 36.9824C43.2007 28.2938 57.0304 38.5621 49.5228 50.6077C55.4499 47.8431 56.8329 41.3267 55.6475 37.1798C53.8693 31.2558 49.1277 27.8988 44.9788 27.7014C39.6444 27.5039 27.1976 28.6887 26.0122 39.9444Z" fill="url(#paint10_linear_12_3291)"/>
<path d="M45.7691 108.861C45.1764 108.861 44.7812 108.466 44.7812 107.873V92.4709C44.7812 91.8785 45.1764 91.4835 45.7691 91.4835C46.3618 91.4835 46.7569 91.8785 46.7569 92.4709V107.873C46.7569 108.466 46.1642 108.861 45.7691 108.861Z" fill="url(#paint11_linear_12_3291)"/>
<path d="M53.2766 101.357H37.8663C37.2736 101.357 36.8784 100.962 36.8784 100.37C36.8784 99.7771 37.2736 99.3822 37.8663 99.3822H53.2766C53.8693 99.3822 54.2644 99.7771 54.2644 100.37C54.462 100.764 53.8693 101.357 53.2766 101.357Z" fill="url(#paint12_linear_12_3291)"/>
<path d="M40.2371 106.689C40.0395 106.689 39.6443 106.491 39.4467 106.294C39.0516 105.899 39.0516 105.306 39.4467 104.714L50.313 93.8532C50.7081 93.4583 51.3009 93.4583 51.8936 93.8532C52.2887 94.2481 52.2887 94.8406 51.8936 95.433L41.0273 106.294C40.8298 106.491 40.4346 106.689 40.2371 106.689Z" fill="url(#paint13_linear_12_3291)"/>
<path d="M51.1033 106.689C50.9058 106.689 50.5106 106.491 50.313 106.294L39.4467 95.433C39.0516 95.038 39.0516 94.4456 39.4467 93.8532C39.8419 93.4583 40.4346 93.4583 41.0273 93.8532L51.8936 104.714C52.2887 105.109 52.2887 105.701 51.8936 106.294C51.696 106.491 51.3009 106.689 51.1033 106.689Z" fill="url(#paint14_linear_12_3291)"/>
<path d="M81.1338 108.861C80.5411 108.861 80.146 108.466 80.146 107.873V92.4709C80.146 91.8785 80.5411 91.4835 81.1338 91.4835C81.7265 91.4835 82.1217 91.8785 82.1217 92.4709V107.873C82.1217 108.466 81.7265 108.861 81.1338 108.861Z" fill="url(#paint15_linear_12_3291)"/>
<path d="M88.8391 101.357H73.4288C72.8361 101.357 72.4409 100.962 72.4409 100.37C72.4409 99.7771 72.8361 99.3822 73.4288 99.3822H88.8391C89.4318 99.3822 89.8269 99.7771 89.8269 100.37C89.8269 100.764 89.4318 101.357 88.8391 101.357Z" fill="url(#paint16_linear_12_3291)"/>
<path d="M75.6022 106.689C75.4047 106.689 75.0095 106.491 74.812 106.294C74.4168 105.899 74.4168 105.306 74.812 104.714L85.6782 93.8531C86.0734 93.4582 86.6661 93.4582 87.2588 93.8531C87.6539 94.248 87.6539 94.8404 87.2588 95.4328L76.3925 106.294C76.1949 106.491 75.9974 106.689 75.6022 106.689Z" fill="url(#paint17_linear_12_3291)"/>
<path d="M86.4685 106.689C86.2709 106.689 85.8758 106.491 85.6782 106.294L74.812 95.4328C74.4168 95.0379 74.4168 94.4455 74.812 93.8531C75.2071 93.4582 75.7998 93.4582 76.3925 93.8531L87.2588 104.714C87.6539 105.109 87.6539 105.701 87.2588 106.294C87.0612 106.491 86.8636 106.689 86.4685 106.689Z" fill="url(#paint18_linear_12_3291)"/>
<path d="M116.499 108.861C115.906 108.861 115.511 108.466 115.511 107.873V92.4709C115.511 91.8785 115.906 91.4835 116.499 91.4835C117.091 91.4835 117.486 91.8785 117.486 92.4709V107.873C117.486 108.466 117.091 108.861 116.499 108.861Z" fill="url(#paint19_linear_12_3291)"/>
<path d="M124.204 101.357H108.794C108.201 101.357 107.806 100.962 107.806 100.37C107.806 99.7771 108.201 99.3822 108.794 99.3822H124.204C124.797 99.3822 125.192 99.7771 125.192 100.37C125.192 100.764 124.797 101.357 124.204 101.357Z" fill="url(#paint20_linear_12_3291)"/>
<path d="M110.967 106.689C110.769 106.689 110.374 106.491 110.177 106.294C109.782 105.899 109.782 105.306 110.177 104.714L121.043 93.8531C121.438 93.4582 122.031 93.4582 122.624 93.8531C123.019 94.248 123.019 94.8404 122.624 95.4328L111.757 106.294C111.56 106.491 111.362 106.689 110.967 106.689Z" fill="url(#paint21_linear_12_3291)"/>
<path d="M121.833 106.689C121.636 106.689 121.241 106.491 121.043 106.294L110.177 95.4328C109.782 95.0379 109.782 94.4455 110.177 93.8531C110.572 93.4582 111.165 93.4582 111.757 93.8531L122.624 104.714C123.019 105.109 123.019 105.701 122.624 106.294C122.426 106.491 122.228 106.689 121.833 106.689Z" fill="url(#paint22_linear_12_3291)"/>
<path d="M61.772 136.111C61.1793 136.111 60.7842 135.716 60.7842 135.124V119.721C60.7842 119.129 61.1793 118.734 61.772 118.734C62.3647 118.734 62.7599 119.129 62.7599 119.721V135.124C62.9574 135.519 62.3647 136.111 61.772 136.111Z" fill="url(#paint23_linear_12_3291)"/>
<path d="M69.4773 128.41H54.0669C53.4742 128.41 53.0791 128.015 53.0791 127.423C53.0791 126.83 53.4742 126.435 54.0669 126.435H69.4773C70.07 126.435 70.4651 126.83 70.4651 127.423C70.6627 127.818 70.07 128.41 69.4773 128.41Z" fill="url(#paint24_linear_12_3291)"/>
<path d="M56.4377 133.742C56.2401 133.742 55.845 133.544 55.6474 133.347C55.2523 132.952 55.2523 132.359 55.6474 131.767L66.5137 120.906C66.9088 120.511 67.5015 120.511 68.0942 120.906C68.4893 121.301 68.4893 121.894 68.0942 122.486L57.2279 133.347C57.0304 133.742 56.6353 133.742 56.4377 133.742Z" fill="url(#paint25_linear_12_3291)"/>
<path d="M67.304 133.742C67.1064 133.742 66.7113 133.544 66.5137 133.347L55.6474 122.486C55.2523 122.091 55.2523 121.301 55.6474 120.906C56.0426 120.511 56.6352 120.511 57.2279 120.906L68.0942 131.767C68.4893 132.162 68.4893 132.754 68.0942 133.347C67.8966 133.742 67.5015 133.742 67.304 133.742Z" fill="url(#paint26_linear_12_3291)"/>
<path d="M97.1368 136.111C96.5441 136.111 96.1489 135.716 96.1489 135.124V119.721C96.1489 119.129 96.5441 118.734 97.1368 118.734C97.7295 118.734 98.1246 119.129 98.1246 119.721V135.124C98.3222 135.519 97.7295 136.111 97.1368 136.111Z" fill="url(#paint27_linear_12_3291)"/>
<path d="M104.842 128.41H89.4317C88.839 128.41 88.4438 128.015 88.4438 127.423C88.4438 126.83 88.839 126.435 89.4317 126.435H104.842C105.435 126.435 105.83 126.83 105.83 127.423C106.027 127.818 105.435 128.41 104.842 128.41Z" fill="url(#paint28_linear_12_3291)"/>
<path d="M91.8024 133.742C91.6049 133.742 91.2097 133.544 91.0122 133.347C90.617 132.952 90.617 132.359 91.0122 131.767L101.878 120.906C102.274 120.511 102.866 120.511 103.459 120.906C103.854 121.301 103.854 121.894 103.459 122.486L92.5928 133.347C92.3952 133.742 92 133.742 91.8024 133.742Z" fill="url(#paint29_linear_12_3291)"/>
<path d="M102.669 133.742C102.471 133.742 102.076 133.544 101.878 133.347L91.0122 122.486C90.617 122.091 90.617 121.301 91.0122 120.906C91.4073 120.511 92.0001 120.511 92.5928 120.906L103.459 131.767C103.854 132.162 103.854 132.754 103.459 133.347C103.261 133.742 102.866 133.742 102.669 133.742Z" fill="url(#paint30_linear_12_3291)"/>
<defs>
<linearGradient id="paint0_linear_12_3291" x1="101.199" y1="10.2442" x2="98.6798" y2="45.4475" gradientUnits="userSpaceOnUse">
<stop stop-color="#C7F6FF"/>
<stop offset="0.1871" stop-color="#C3F4FF"/>
<stop offset="0.3738" stop-color="#B7EDFF"/>
<stop offset="0.5603" stop-color="#A3E2FF"/>
<stop offset="0.7469" stop-color="#87D2FF"/>
<stop offset="0.9318" stop-color="#63BEFF"/>
<stop offset="1" stop-color="#54B5FF"/>
</linearGradient>
<linearGradient id="paint1_linear_12_3291" x1="142.064" y1="21.7542" x2="137.348" y2="34.9702" gradientUnits="userSpaceOnUse">
<stop stop-color="white" stop-opacity="0.11"/>
<stop offset="1" stop-color="white"/>
</linearGradient>
<linearGradient id="paint2_linear_12_3291" x1="65.4076" y1="20.7022" x2="60.7627" y2="33.8298" gradientUnits="userSpaceOnUse">
<stop stop-color="white" stop-opacity="0.11"/>
<stop offset="1" stop-color="white"/>
</linearGradient>
<linearGradient id="paint3_linear_12_3291" x1="119.238" y1="4.73775" x2="113.053" y2="22.2541" gradientUnits="userSpaceOnUse">
<stop stop-color="white" stop-opacity="0.11"/>
<stop offset="1" stop-color="white"/>
</linearGradient>
<linearGradient id="paint4_linear_12_3291" x1="89.0103" y1="9.8719" x2="82.8247" y2="27.3883" gradientUnits="userSpaceOnUse">
<stop stop-color="white" stop-opacity="0.11"/>
<stop offset="1" stop-color="white"/>
</linearGradient>
<linearGradient id="paint5_linear_12_3291" x1="73.5488" y1="34.931" x2="73.5488" y2="81.4917" gradientUnits="userSpaceOnUse">
<stop stop-color="#99E8FF"/>
<stop offset="0.2786" stop-color="#96E6FF"/>
<stop offset="0.4778" stop-color="#8DE0FF"/>
<stop offset="0.6522" stop-color="#7DD5FF"/>
<stop offset="0.8123" stop-color="#67C6FF"/>
<stop offset="0.9614" stop-color="#4BB3FF"/>
<stop offset="1" stop-color="#42ADFF"/>
</linearGradient>
<linearGradient id="paint6_linear_12_3291" x1="17.1857" y1="49.9169" x2="12.8034" y2="63.7411" gradientUnits="userSpaceOnUse">
<stop stop-color="white" stop-opacity="0.11"/>
<stop offset="1" stop-color="white"/>
</linearGradient>
<linearGradient id="paint7_linear_12_3291" x1="77.6417" y1="43.3975" x2="73.2579" y2="57.2238" gradientUnits="userSpaceOnUse">
<stop stop-color="white" stop-opacity="0.11"/>
<stop offset="1" stop-color="white"/>
</linearGradient>
<linearGradient id="paint8_linear_12_3291" x1="134.618" y1="47.9701" x2="130.213" y2="61.9042" gradientUnits="userSpaceOnUse">
<stop stop-color="white" stop-opacity="0.11"/>
<stop offset="1" stop-color="white"/>
</linearGradient>
<linearGradient id="paint9_linear_12_3291" x1="107.88" y1="36.8233" x2="102.841" y2="52.7159" gradientUnits="userSpaceOnUse">
<stop stop-color="white" stop-opacity="0.11"/>
<stop offset="1" stop-color="white"/>
</linearGradient>
<linearGradient id="paint10_linear_12_3291" x1="46.1714" y1="29.0636" x2="39.5306" y2="50.0131" gradientUnits="userSpaceOnUse">
<stop stop-color="white" stop-opacity="0.11"/>
<stop offset="1" stop-color="white"/>
</linearGradient>
<linearGradient id="paint11_linear_12_3291" x1="45.6717" y1="91.1166" x2="45.6717" y2="108.988" gradientUnits="userSpaceOnUse">
<stop stop-color="#99E8FF"/>
<stop offset="0.2786" stop-color="#96E6FF"/>
<stop offset="0.4778" stop-color="#8DE0FF"/>
<stop offset="0.6522" stop-color="#7DD5FF"/>
<stop offset="0.8123" stop-color="#67C6FF"/>
<stop offset="0.9614" stop-color="#4BB3FF"/>
<stop offset="1" stop-color="#42ADFF"/>
</linearGradient>
<linearGradient id="paint12_linear_12_3291" x1="45.6716" y1="91.1217" x2="45.6716" y2="108.982" gradientUnits="userSpaceOnUse">
<stop stop-color="#99E8FF"/>
<stop offset="0.2786" stop-color="#96E6FF"/>
<stop offset="0.4778" stop-color="#8DE0FF"/>
<stop offset="0.6522" stop-color="#7DD5FF"/>
<stop offset="0.8123" stop-color="#67C6FF"/>
<stop offset="0.9614" stop-color="#4BB3FF"/>
<stop offset="1" stop-color="#42ADFF"/>
</linearGradient>
<linearGradient id="paint13_linear_12_3291" x1="45.6698" y1="91.1165" x2="45.6698" y2="108.989" gradientUnits="userSpaceOnUse">
<stop stop-color="#99E8FF"/>
<stop offset="0.2786" stop-color="#96E6FF"/>
<stop offset="0.4778" stop-color="#8DE0FF"/>
<stop offset="0.6522" stop-color="#7DD5FF"/>
<stop offset="0.8123" stop-color="#67C6FF"/>
<stop offset="0.9614" stop-color="#4BB3FF"/>
<stop offset="1" stop-color="#42ADFF"/>
</linearGradient>
<linearGradient id="paint14_linear_12_3291" x1="45.6698" y1="91.1165" x2="45.6698" y2="108.989" gradientUnits="userSpaceOnUse">
<stop stop-color="#99E8FF"/>
<stop offset="0.2786" stop-color="#96E6FF"/>
<stop offset="0.4778" stop-color="#8DE0FF"/>
<stop offset="0.6522" stop-color="#7DD5FF"/>
<stop offset="0.8123" stop-color="#67C6FF"/>
<stop offset="0.9614" stop-color="#4BB3FF"/>
<stop offset="1" stop-color="#42ADFF"/>
</linearGradient>
<linearGradient id="paint15_linear_12_3291" x1="81.0671" y1="91.1166" x2="81.0671" y2="108.988" gradientUnits="userSpaceOnUse">
<stop stop-color="#99E8FF"/>
<stop offset="0.2786" stop-color="#96E6FF"/>
<stop offset="0.4778" stop-color="#8DE0FF"/>
<stop offset="0.6522" stop-color="#7DD5FF"/>
<stop offset="0.8123" stop-color="#67C6FF"/>
<stop offset="0.9614" stop-color="#4BB3FF"/>
<stop offset="1" stop-color="#42ADFF"/>
</linearGradient>
<linearGradient id="paint16_linear_12_3291" x1="81.0681" y1="91.1217" x2="81.0681" y2="108.982" gradientUnits="userSpaceOnUse">
<stop stop-color="#99E8FF"/>
<stop offset="0.2786" stop-color="#96E6FF"/>
<stop offset="0.4778" stop-color="#8DE0FF"/>
<stop offset="0.6522" stop-color="#7DD5FF"/>
<stop offset="0.8123" stop-color="#67C6FF"/>
<stop offset="0.9614" stop-color="#4BB3FF"/>
<stop offset="1" stop-color="#42ADFF"/>
</linearGradient>
<linearGradient id="paint17_linear_12_3291" x1="81.0674" y1="91.1164" x2="81.0674" y2="108.989" gradientUnits="userSpaceOnUse">
<stop stop-color="#99E8FF"/>
<stop offset="0.2786" stop-color="#96E6FF"/>
<stop offset="0.4778" stop-color="#8DE0FF"/>
<stop offset="0.6522" stop-color="#7DD5FF"/>
<stop offset="0.8123" stop-color="#67C6FF"/>
<stop offset="0.9614" stop-color="#4BB3FF"/>
<stop offset="1" stop-color="#42ADFF"/>
</linearGradient>
<linearGradient id="paint18_linear_12_3291" x1="81.0674" y1="91.1164" x2="81.0674" y2="108.989" gradientUnits="userSpaceOnUse">
<stop stop-color="#99E8FF"/>
<stop offset="0.2786" stop-color="#96E6FF"/>
<stop offset="0.4778" stop-color="#8DE0FF"/>
<stop offset="0.6522" stop-color="#7DD5FF"/>
<stop offset="0.8123" stop-color="#67C6FF"/>
<stop offset="0.9614" stop-color="#4BB3FF"/>
<stop offset="1" stop-color="#42ADFF"/>
</linearGradient>
<linearGradient id="paint19_linear_12_3291" x1="116.463" y1="91.1166" x2="116.463" y2="108.988" gradientUnits="userSpaceOnUse">
<stop stop-color="#99E8FF"/>
<stop offset="0.2786" stop-color="#96E6FF"/>
<stop offset="0.4778" stop-color="#8DE0FF"/>
<stop offset="0.6522" stop-color="#7DD5FF"/>
<stop offset="0.8123" stop-color="#67C6FF"/>
<stop offset="0.9614" stop-color="#4BB3FF"/>
<stop offset="1" stop-color="#42ADFF"/>
</linearGradient>
<linearGradient id="paint20_linear_12_3291" x1="116.465" y1="91.1217" x2="116.465" y2="108.982" gradientUnits="userSpaceOnUse">
<stop stop-color="#99E8FF"/>
<stop offset="0.2786" stop-color="#96E6FF"/>
<stop offset="0.4778" stop-color="#8DE0FF"/>
<stop offset="0.6522" stop-color="#7DD5FF"/>
<stop offset="0.8123" stop-color="#67C6FF"/>
<stop offset="0.9614" stop-color="#4BB3FF"/>
<stop offset="1" stop-color="#42ADFF"/>
</linearGradient>
<linearGradient id="paint21_linear_12_3291" x1="116.465" y1="91.1164" x2="116.465" y2="108.989" gradientUnits="userSpaceOnUse">
<stop stop-color="#99E8FF"/>
<stop offset="0.2786" stop-color="#96E6FF"/>
<stop offset="0.4778" stop-color="#8DE0FF"/>
<stop offset="0.6522" stop-color="#7DD5FF"/>
<stop offset="0.8123" stop-color="#67C6FF"/>
<stop offset="0.9614" stop-color="#4BB3FF"/>
<stop offset="1" stop-color="#42ADFF"/>
</linearGradient>
<linearGradient id="paint22_linear_12_3291" x1="116.465" y1="91.1164" x2="116.465" y2="108.989" gradientUnits="userSpaceOnUse">
<stop stop-color="#99E8FF"/>
<stop offset="0.2786" stop-color="#96E6FF"/>
<stop offset="0.4778" stop-color="#8DE0FF"/>
<stop offset="0.6522" stop-color="#7DD5FF"/>
<stop offset="0.8123" stop-color="#67C6FF"/>
<stop offset="0.9614" stop-color="#4BB3FF"/>
<stop offset="1" stop-color="#42ADFF"/>
</linearGradient>
<linearGradient id="paint23_linear_12_3291" x1="61.8388" y1="118.197" x2="61.8388" y2="136.068" gradientUnits="userSpaceOnUse">
<stop stop-color="#99E8FF"/>
<stop offset="0.2786" stop-color="#96E6FF"/>
<stop offset="0.4778" stop-color="#8DE0FF"/>
<stop offset="0.6522" stop-color="#7DD5FF"/>
<stop offset="0.8123" stop-color="#67C6FF"/>
<stop offset="0.9614" stop-color="#4BB3FF"/>
<stop offset="1" stop-color="#42ADFF"/>
</linearGradient>
<linearGradient id="paint24_linear_12_3291" x1="61.8389" y1="118.202" x2="61.8389" y2="136.063" gradientUnits="userSpaceOnUse">
<stop stop-color="#99E8FF"/>
<stop offset="0.2786" stop-color="#96E6FF"/>
<stop offset="0.4778" stop-color="#8DE0FF"/>
<stop offset="0.6522" stop-color="#7DD5FF"/>
<stop offset="0.8123" stop-color="#67C6FF"/>
<stop offset="0.9614" stop-color="#4BB3FF"/>
<stop offset="1" stop-color="#42ADFF"/>
</linearGradient>
<linearGradient id="paint25_linear_12_3291" x1="61.8388" y1="118.198" x2="61.8388" y2="136.067" gradientUnits="userSpaceOnUse">
<stop stop-color="#99E8FF"/>
<stop offset="0.2786" stop-color="#96E6FF"/>
<stop offset="0.4778" stop-color="#8DE0FF"/>
<stop offset="0.6522" stop-color="#7DD5FF"/>
<stop offset="0.8123" stop-color="#67C6FF"/>
<stop offset="0.9614" stop-color="#4BB3FF"/>
<stop offset="1" stop-color="#42ADFF"/>
</linearGradient>
<linearGradient id="paint26_linear_12_3291" x1="61.8388" y1="118.198" x2="61.8388" y2="136.067" gradientUnits="userSpaceOnUse">
<stop stop-color="#99E8FF"/>
<stop offset="0.2786" stop-color="#96E6FF"/>
<stop offset="0.4778" stop-color="#8DE0FF"/>
<stop offset="0.6522" stop-color="#7DD5FF"/>
<stop offset="0.8123" stop-color="#67C6FF"/>
<stop offset="0.9614" stop-color="#4BB3FF"/>
<stop offset="1" stop-color="#42ADFF"/>
</linearGradient>
<linearGradient id="paint27_linear_12_3291" x1="97.2361" y1="118.197" x2="97.2361" y2="136.068" gradientUnits="userSpaceOnUse">
<stop stop-color="#99E8FF"/>
<stop offset="0.2786" stop-color="#96E6FF"/>
<stop offset="0.4778" stop-color="#8DE0FF"/>
<stop offset="0.6522" stop-color="#7DD5FF"/>
<stop offset="0.8123" stop-color="#67C6FF"/>
<stop offset="0.9614" stop-color="#4BB3FF"/>
<stop offset="1" stop-color="#42ADFF"/>
</linearGradient>
<linearGradient id="paint28_linear_12_3291" x1="97.2362" y1="118.202" x2="97.2362" y2="136.063" gradientUnits="userSpaceOnUse">
<stop stop-color="#99E8FF"/>
<stop offset="0.2786" stop-color="#96E6FF"/>
<stop offset="0.4778" stop-color="#8DE0FF"/>
<stop offset="0.6522" stop-color="#7DD5FF"/>
<stop offset="0.8123" stop-color="#67C6FF"/>
<stop offset="0.9614" stop-color="#4BB3FF"/>
<stop offset="1" stop-color="#42ADFF"/>
</linearGradient>
<linearGradient id="paint29_linear_12_3291" x1="97.2354" y1="118.198" x2="97.2354" y2="136.067" gradientUnits="userSpaceOnUse">
<stop stop-color="#99E8FF"/>
<stop offset="0.2786" stop-color="#96E6FF"/>
<stop offset="0.4778" stop-color="#8DE0FF"/>
<stop offset="0.6522" stop-color="#7DD5FF"/>
<stop offset="0.8123" stop-color="#67C6FF"/>
<stop offset="0.9614" stop-color="#4BB3FF"/>
<stop offset="1" stop-color="#42ADFF"/>
</linearGradient>
<linearGradient id="paint30_linear_12_3291" x1="97.2354" y1="118.198" x2="97.2354" y2="136.067" gradientUnits="userSpaceOnUse">
<stop stop-color="#99E8FF"/>
<stop offset="0.2786" stop-color="#96E6FF"/>
<stop offset="0.4778" stop-color="#8DE0FF"/>
<stop offset="0.6522" stop-color="#7DD5FF"/>
<stop offset="0.8123" stop-color="#67C6FF"/>
<stop offset="0.9614" stop-color="#4BB3FF"/>
<stop offset="1" stop-color="#42ADFF"/>
</linearGradient>
</defs>
</svg>
