<svg width="158" height="157" viewBox="0 0 158 157" fill="none" xmlns="http://www.w3.org/2000/svg">
<path d="M69.7418 44.8253C69.7418 44.8253 62.8269 36.9266 70.3345 24.6835C74.8786 17.3772 82.1886 8.88608 76.2616 0C85.7449 8.49114 85.5473 15.9949 81.2008 26.6582C77.6446 35.5443 86.9303 44.0354 86.9303 44.0354L69.7418 44.8253Z" fill="url(#paint0_radial_12_3179)"/>
<path d="M54.1338 53.7114C54.1338 53.7114 44.0578 50.3544 44.6505 35.9392C44.8481 27.4481 47.0214 16.3898 37.5381 11.4531C49.9849 14.2177 53.5411 20.5367 55.1217 32.1873C56.5047 41.6658 68.5563 44.4303 68.5563 44.4303L54.1338 53.7114Z" fill="url(#paint1_radial_12_3179)"/>
<path d="M45.0457 69.1139C45.0457 69.1139 34.5746 71.0886 27.8573 58.6481C23.9059 51.1443 20.1521 40.481 9.4834 41.0734C21.5351 37.124 28.0548 40.8759 35.1673 50.1569C41.0943 57.8582 52.9484 54.1063 52.9484 54.1063L45.0457 69.1139Z" fill="url(#paint2_radial_12_3179)"/>
<path d="M44.848 87.281C44.848 87.281 36.9453 94.1924 24.696 86.6886C17.386 82.1468 8.89058 74.8405 0 80.7645C8.49544 71.2861 16.003 71.4835 26.6717 75.8278C35.5623 79.3823 44.0578 70.2987 44.0578 70.2987L44.848 87.281Z" fill="url(#paint3_radial_12_3179)"/>
<path d="M53.7388 102.881C53.7388 102.881 50.3801 112.952 35.9577 112.359C27.4622 112.162 16.3984 109.99 11.6567 119.468C14.4227 107.028 20.7449 103.473 32.4014 101.894C41.8847 100.511 44.6507 88.4658 44.6507 88.4658L53.7388 102.881Z" fill="url(#paint4_radial_12_3179)"/>
<path d="M69.1489 111.965C69.1489 111.965 71.1246 122.43 58.6778 129.144C51.1702 133.094 40.5015 136.846 41.0942 147.509C37.1428 135.463 40.8966 128.947 50.1823 121.838C57.8875 115.914 54.1337 104.066 54.1337 104.066L69.1489 111.965Z" fill="url(#paint5_radial_12_3179)"/>
<path d="M87.3254 112.162C87.3254 112.162 94.2403 120.061 86.7327 132.304C82.1886 139.61 74.8786 148.101 80.8056 156.987C71.3223 148.496 71.5199 140.992 75.8664 130.329C79.4226 121.443 70.3345 112.952 70.3345 112.952L87.3254 112.162Z" fill="url(#paint6_radial_12_3179)"/>
<path d="M102.933 103.276C102.933 103.276 113.009 106.633 112.416 121.048C112.219 129.539 110.046 140.598 119.529 145.534C107.082 142.77 103.526 136.451 101.748 124.8C100.365 115.322 88.313 112.557 88.313 112.557L102.933 103.276Z" fill="url(#paint7_radial_12_3179)"/>
<path d="M112.021 87.6759C112.021 87.6759 122.493 85.7013 129.21 98.1418C133.161 105.646 136.915 116.309 147.584 115.716C135.532 119.666 129.012 115.914 121.9 106.633C115.973 98.9316 104.119 102.684 104.119 102.684L112.021 87.6759Z" fill="url(#paint8_radial_12_3179)"/>
<path d="M112.219 69.7063C112.219 69.7063 120.121 62.7949 132.371 70.2987C139.681 74.8405 148.176 82.1468 157.067 76.2228C148.571 85.7012 141.064 85.5038 130.395 81.1595C121.504 77.605 113.009 86.6886 113.009 86.6886L112.219 69.7063Z" fill="url(#paint9_radial_12_3179)"/>
<path d="M103.328 54.1063C103.328 54.1063 106.687 44.0355 121.109 44.4304C129.605 44.6279 140.669 46.8 145.41 37.3215C142.644 49.762 136.322 53.3165 124.666 54.8962C115.182 56.2785 112.416 68.3241 112.416 68.3241L103.328 54.1063Z" fill="url(#paint10_radial_12_3179)"/>
<path d="M87.7203 45.0228C87.7203 45.0228 85.5471 34.557 98.1915 27.8431C105.699 23.8937 116.368 20.1418 115.775 9.47852C119.726 21.5241 115.973 28.0405 106.687 35.1494C98.9817 41.0735 102.736 52.9216 102.736 52.9216L87.7203 45.0228Z" fill="url(#paint11_radial_12_3179)"/>
<path d="M78.4345 115.914C99.1661 115.914 115.972 99.1161 115.972 78.395C115.972 57.6738 99.1661 40.876 78.4345 40.876C57.7028 40.876 40.8965 57.6738 40.8965 78.395C40.8965 99.1161 57.7028 115.914 78.4345 115.914Z" fill="url(#paint12_radial_12_3179)"/>
<path d="M103.724 65.1645C103.328 54.1063 91.6719 45.4177 77.447 45.8126C63.2221 46.2076 51.9607 55.686 52.3558 66.7443C52.7509 77.8025 64.605 86.4911 78.6324 86.0962C92.8573 85.7012 104.119 76.2228 103.724 65.1645Z" fill="url(#paint13_linear_12_3179)"/>
<defs>
<radialGradient id="paint0_radial_12_3179" cx="0" cy="0" r="1" gradientUnits="userSpaceOnUse" gradientTransform="translate(76.2897 22.2925) rotate(-1.80421) scale(17.2465 17.2377)">
<stop stop-color="#FFCA00"/>
<stop offset="0.4146" stop-color="#FFC800"/>
<stop offset="0.6041" stop-color="#FFC000"/>
<stop offset="0.7477" stop-color="#FFB400"/>
<stop offset="0.8682" stop-color="#FEA200"/>
<stop offset="0.9732" stop-color="#FE8A00"/>
<stop offset="1" stop-color="#FE8300"/>
</radialGradient>
<radialGradient id="paint1_radial_12_3179" cx="0" cy="0" r="1" gradientUnits="userSpaceOnUse" gradientTransform="translate(53.1084 32.4062) rotate(-1.80421) scale(18.4508 18.4415)">
<stop stop-color="#FFCA00"/>
<stop offset="0.4146" stop-color="#FFC800"/>
<stop offset="0.6041" stop-color="#FFC000"/>
<stop offset="0.7477" stop-color="#FFB400"/>
<stop offset="0.8682" stop-color="#FEA200"/>
<stop offset="0.9732" stop-color="#FE8A00"/>
<stop offset="1" stop-color="#FE8300"/>
</radialGradient>
<radialGradient id="paint2_radial_12_3179" cx="0" cy="0" r="1" gradientUnits="userSpaceOnUse" gradientTransform="translate(31.3969 54.4367) rotate(-1.80421) scale(18.6674 18.6579)">
<stop stop-color="#FFCA00"/>
<stop offset="0.4146" stop-color="#FFC800"/>
<stop offset="0.6041" stop-color="#FFC000"/>
<stop offset="0.7477" stop-color="#FFB400"/>
<stop offset="0.8682" stop-color="#FEA200"/>
<stop offset="0.9732" stop-color="#FE8A00"/>
<stop offset="1" stop-color="#FE8300"/>
</radialGradient>
<radialGradient id="paint3_radial_12_3179" cx="0" cy="0" r="1" gradientUnits="userSpaceOnUse" gradientTransform="translate(22.3052 80.6929) rotate(-1.80421) scale(17.2476 17.2389)">
<stop stop-color="#FFCA00"/>
<stop offset="0.4146" stop-color="#FFC800"/>
<stop offset="0.6041" stop-color="#FFC000"/>
<stop offset="0.7477" stop-color="#FFB400"/>
<stop offset="0.8682" stop-color="#FEA200"/>
<stop offset="0.9732" stop-color="#FE8A00"/>
<stop offset="1" stop-color="#FE8300"/>
</radialGradient>
<radialGradient id="paint4_radial_12_3179" cx="0" cy="0" r="1" gradientUnits="userSpaceOnUse" gradientTransform="translate(32.4268 103.865) rotate(-1.80421) scale(18.4512 18.4419)">
<stop stop-color="#FFCA00"/>
<stop offset="0.4146" stop-color="#FFC800"/>
<stop offset="0.6041" stop-color="#FFC000"/>
<stop offset="0.7477" stop-color="#FFB400"/>
<stop offset="0.8682" stop-color="#FEA200"/>
<stop offset="0.9732" stop-color="#FE8A00"/>
<stop offset="1" stop-color="#FE8300"/>
</radialGradient>
<radialGradient id="paint5_radial_12_3179" cx="0" cy="0" r="1" gradientUnits="userSpaceOnUse" gradientTransform="translate(54.4681 125.57) rotate(-1.80421) scale(18.6654 18.656)">
<stop stop-color="#FFCA00"/>
<stop offset="0.4146" stop-color="#FFC800"/>
<stop offset="0.6041" stop-color="#FFC000"/>
<stop offset="0.7477" stop-color="#FFB400"/>
<stop offset="0.8682" stop-color="#FEA200"/>
<stop offset="0.9732" stop-color="#FE8A00"/>
<stop offset="1" stop-color="#FE8300"/>
</radialGradient>
<radialGradient id="paint6_radial_12_3179" cx="0" cy="0" r="1" gradientUnits="userSpaceOnUse" gradientTransform="translate(80.7329 134.651) rotate(-1.80421) scale(17.2484 17.2397)">
<stop stop-color="#FFCA00"/>
<stop offset="0.4146" stop-color="#FFC800"/>
<stop offset="0.6041" stop-color="#FFC000"/>
<stop offset="0.7477" stop-color="#FFB400"/>
<stop offset="0.8682" stop-color="#FEA200"/>
<stop offset="0.9732" stop-color="#FE8A00"/>
<stop offset="1" stop-color="#FE8300"/>
</radialGradient>
<radialGradient id="paint7_radial_12_3179" cx="0" cy="0" r="1" gradientUnits="userSpaceOnUse" gradientTransform="translate(103.916 124.545) rotate(-1.80421) scale(18.4522 18.4429)">
<stop stop-color="#FFCA00"/>
<stop offset="0.4146" stop-color="#FFC800"/>
<stop offset="0.6041" stop-color="#FFC000"/>
<stop offset="0.7477" stop-color="#FFB400"/>
<stop offset="0.8682" stop-color="#FEA200"/>
<stop offset="0.9732" stop-color="#FE8A00"/>
<stop offset="1" stop-color="#FE8300"/>
</radialGradient>
<radialGradient id="paint8_radial_12_3179" cx="0" cy="0" r="1" gradientUnits="userSpaceOnUse" gradientTransform="translate(125.631 102.509) rotate(-1.80421) scale(18.6674 18.6579)">
<stop stop-color="#FFCA00"/>
<stop offset="0.4146" stop-color="#FFC800"/>
<stop offset="0.6041" stop-color="#FFC000"/>
<stop offset="0.7477" stop-color="#FFB400"/>
<stop offset="0.8682" stop-color="#FEA200"/>
<stop offset="0.9732" stop-color="#FE8A00"/>
<stop offset="1" stop-color="#FE8300"/>
</radialGradient>
<radialGradient id="paint9_radial_12_3179" cx="0" cy="0" r="1" gradientUnits="userSpaceOnUse" gradientTransform="translate(134.721 76.2537) rotate(-1.80421) scale(17.2476 17.2389)">
<stop stop-color="#FFCA00"/>
<stop offset="0.4146" stop-color="#FFC800"/>
<stop offset="0.6041" stop-color="#FFC000"/>
<stop offset="0.7477" stop-color="#FFB400"/>
<stop offset="0.8682" stop-color="#FEA200"/>
<stop offset="0.9732" stop-color="#FE8A00"/>
<stop offset="1" stop-color="#FE8300"/>
</radialGradient>
<radialGradient id="paint10_radial_12_3179" cx="0" cy="0" r="1" gradientUnits="userSpaceOnUse" gradientTransform="translate(124.603 53.0821) rotate(-1.80421) scale(18.4491 18.4397)">
<stop stop-color="#FFCA00"/>
<stop offset="0.4146" stop-color="#FFC800"/>
<stop offset="0.6041" stop-color="#FFC000"/>
<stop offset="0.7477" stop-color="#FFB400"/>
<stop offset="0.8682" stop-color="#FEA200"/>
<stop offset="0.9732" stop-color="#FE8A00"/>
<stop offset="1" stop-color="#FE8300"/>
</radialGradient>
<radialGradient id="paint11_radial_12_3179" cx="0" cy="0" r="1" gradientUnits="userSpaceOnUse" gradientTransform="translate(102.56 31.3769) rotate(-1.80421) scale(18.6618 18.6524)">
<stop stop-color="#FFCA00"/>
<stop offset="0.4146" stop-color="#FFC800"/>
<stop offset="0.6041" stop-color="#FFC000"/>
<stop offset="0.7477" stop-color="#FFB400"/>
<stop offset="0.8682" stop-color="#FEA200"/>
<stop offset="0.9732" stop-color="#FE8A00"/>
<stop offset="1" stop-color="#FE8300"/>
</radialGradient>
<radialGradient id="paint12_radial_12_3179" cx="0" cy="0" r="1" gradientUnits="userSpaceOnUse" gradientTransform="translate(81.0937 68.774) rotate(-1.80421) scale(37.4989 37.48)">
<stop stop-color="#FFCA00"/>
<stop offset="0.2706" stop-color="#FFC600"/>
<stop offset="0.5273" stop-color="#FFBB00"/>
<stop offset="0.7776" stop-color="#FEA800"/>
<stop offset="1" stop-color="#FE9000"/>
</radialGradient>
<linearGradient id="paint13_linear_12_3179" x1="86.8978" y1="48.0044" x2="76.8664" y2="81.8349" gradientUnits="userSpaceOnUse">
<stop stop-color="white"/>
<stop offset="1" stop-color="white" stop-opacity="0.11"/>
</linearGradient>
</defs>
</svg>
